# xmcd CD database file
#
# Track frame offsets:
#	150
#	11892
#	25582
#	37817
#	50817
#	62187
#	76277
#	90427
#	101592
#	114357
#	127042
#	139492
#	149962
#	163582
#
# Disc length: 2337 seconds
#
# Revision: 5
# Processed by: cddbd v1.5.1PL2 Copyright (c) Steve Scherf et al.
# Submitted via: CDex 1.51
#
DISCID=aa091f0e,c4091f0e
DTITLE=Various Artist - The Soul Of Black Music - CD01
DYEAR=1900
DGENRE=Soul
TTITLE0=Sam and Dave - Soul Man
TTITLE1=Eddy Floyd - Knock On Wood
TTITLE2=Sam and Dave - Hold On I´m Coming
TTITLE3=Lloyd Price - Stagger Lee
TTITLE4=Solomon Burke - If You Need Me
TTITLE5=Martha Reeves - No Where To Run
TTITLE6=Dave 'Baby' Cortez - Green Onions
TTITLE7=The Orioles - Baby Please Don´t Go
TTITLE8=Archie Bell and The Drells - Tighten Up
TTITLE9=Fontella Bass - Rescue Me
TTITLE10=Martha Reeves - Heat Wave
TTITLE11=Rufus Thomas - Walking The Dog
TTITLE12=Percy Sledge - Take Time To Know Her
TTITLE13=Martha Reeves - Dancing In The Street
EXTD=
EXTT0=
EXTT1=
EXTT2=
EXTT3=
EXTT4=
EXTT5=
EXTT6=
EXTT7=
EXTT8=
EXTT9=
EXTT10=
EXTT11=
EXTT12=
EXTT13=
PLAYORDER=
